<svg version="1.2" baseProfile="tiny-ps" xmlns="http://www.w3.org/2000/svg" viewBox="0 0 910 224" width="910" height="224">
	<title>AlgoSearch_logo</title>
	<path id="AlgoSearch" fill="#263446" aria-label="AlgoSearch"  d="M66.25 157L49.75 157L90.4 52L106.9 52L147.25 157L130 157L106 93.7Q105.55 92.65 104.2 88.6Q103 84.55 101.35 79.6Q99.7 74.65 98.35 70.6Q97 66.4 96.55 65.2L100 65.05Q99.1 67.6 97.75 71.5Q96.55 75.4 95.05 79.75Q93.7 84.1 92.35 88Q91 91.75 90.1 94.3L66.25 157ZM128.35 130.9L67.75 130.9L73.75 115.3L121.45 115.3L128.35 130.9ZM177.55 157L162.1 157L162.1 46L177.55 46L177.55 157ZM233.2 191.5Q224.8 191.5 216.4 188.95Q208.15 186.25 203.05 182.05L208.75 170.05Q211.75 172.3 215.8 174.1Q219.85 175.75 224.35 176.8Q228.85 177.7 233.2 177.7Q241.45 177.7 247 175Q252.55 172.3 255.4 167.05Q258.25 161.8 258.25 154L258.25 138.85L259.9 139.9Q259.15 144.55 254.95 148.9Q250.9 153.1 244.75 155.8Q238.6 158.5 232.15 158.5Q220.9 158.5 212.05 153.25Q203.35 147.85 198.25 138.7Q193.15 129.4 193.15 117.55Q193.15 105.7 198.1 96.55Q203.2 87.25 211.9 82Q220.75 76.6 231.7 76.6Q236.2 76.6 240.4 77.8Q244.6 78.85 248.2 80.95Q251.8 82.9 254.65 85.3Q257.5 87.7 259.3 90.4Q261.1 93.1 261.55 95.5L258.25 96.7L258.25 78.25L273.7 78.25L273.7 152.2Q273.7 161.65 270.85 169Q268.15 176.2 262.9 181.3Q257.65 186.25 250.15 188.95Q242.65 191.5 233.2 191.5ZM233.8 144.25Q241.15 144.25 246.85 140.8Q252.55 137.35 255.7 131.35Q258.85 125.35 258.85 117.55Q258.85 109.75 255.55 103.75Q252.4 97.6 246.7 94.15Q241.15 90.7 233.8 90.7Q226.6 90.7 220.9 94.3Q215.35 97.75 212.05 103.9Q208.9 109.9 208.9 117.55Q208.9 125.2 212.05 131.35Q215.35 137.35 220.9 140.8Q226.6 144.25 233.8 144.25ZM330.7 158.5Q319.15 158.5 310 153.25Q301 147.85 295.75 138.7Q290.5 129.4 290.5 117.55Q290.5 105.7 295.75 96.55Q301 87.25 310 82Q319.15 76.6 330.7 76.6Q342.1 76.6 351.1 82Q360.25 87.25 365.5 96.55Q370.75 105.7 370.75 117.55Q370.75 129.4 365.5 138.7Q360.25 147.85 351.1 153.25Q342.1 158.5 330.7 158.5ZM330.7 144.4Q337.75 144.4 343.3 140.95Q348.85 137.35 352 131.35Q355.15 125.2 355 117.55Q355.15 109.75 352 103.75Q348.85 97.6 343.3 94.15Q337.75 90.7 330.7 90.7Q323.65 90.7 317.95 94.3Q312.4 97.75 309.25 103.9Q306.1 109.9 306.25 117.55Q306.1 125.2 309.25 131.35Q312.4 137.35 317.95 140.95Q323.65 144.4 330.7 144.4ZM423.85 158.5Q415.3 158.5 407.95 156.25Q400.75 154 394.75 149.5Q388.9 144.85 384.25 138.1L395.35 125.35Q402.7 135.85 409.45 139.9Q416.2 143.95 425.5 143.95Q431.2 143.95 435.85 142.15Q440.5 140.35 443.2 137.2Q445.9 134.05 445.9 130Q445.9 127.3 445 124.9Q444.1 122.5 442.15 120.55Q440.35 118.6 437.35 116.95Q434.5 115.3 430.6 114.1Q426.7 112.75 421.6 111.85Q413.5 110.2 407.5 107.5Q401.5 104.8 397.45 100.75Q393.4 96.7 391.45 91.6Q389.5 86.35 389.5 79.9Q389.5 73.6 392.2 68.2Q395.05 62.8 399.85 58.9Q404.8 54.85 411.4 52.75Q418 50.5 425.65 50.5Q433.75 50.5 440.5 52.6Q447.25 54.7 452.5 58.9Q457.75 62.95 461.2 68.95L449.8 80.2Q446.8 75.25 443.05 71.95Q439.3 68.5 434.8 66.85Q430.3 65.05 425.2 65.05Q419.35 65.05 415 66.85Q410.65 68.65 408.1 71.95Q405.7 75.1 405.7 79.45Q405.7 82.6 406.9 85.3Q408.1 87.85 410.5 89.95Q413.05 91.9 417.25 93.55Q421.45 95.05 427.3 96.25Q435.55 98.05 442 100.9Q448.45 103.6 452.95 107.35Q457.45 111.1 459.7 115.75Q462.1 120.4 462.1 125.8Q462.1 135.85 457.45 143.2Q452.8 150.55 444.25 154.6Q435.7 158.5 423.85 158.5ZM517.9 158.5Q505.75 158.5 496.3 153.4Q487 148.15 481.6 139.15Q476.35 130.15 476.35 118.45Q476.35 109.15 479.35 101.5Q482.35 93.85 487.6 88.3Q493 82.6 500.35 79.6Q507.85 76.45 516.55 76.45Q524.2 76.45 530.8 79.45Q537.4 82.3 542.2 87.4Q547.15 92.5 549.7 99.55Q552.4 106.45 552.25 114.7L552.1 121.3L487.75 121.3L484.3 109L538.75 109L536.5 111.55L536.5 107.95Q536.05 103 533.2 99.1Q530.35 95.2 526 92.95Q521.65 90.7 516.55 90.7Q508.45 90.7 502.9 93.85Q497.35 96.85 494.5 102.85Q491.65 108.7 491.65 117.4Q491.65 125.65 495.1 131.8Q498.55 137.8 504.85 141.1Q511.15 144.4 519.4 144.4Q525.25 144.4 530.2 142.45Q535.3 140.5 541.15 135.4L548.95 146.35Q545.35 149.95 540.1 152.65Q535 155.35 529.15 157Q523.45 158.5 517.9 158.5ZM599.35 158.5Q589.6 158.5 581.5 153.1Q573.55 147.7 568.75 138.4Q563.95 129.1 563.95 117.4Q563.95 105.55 568.75 96.4Q573.7 87.1 581.95 81.85Q590.35 76.6 600.7 76.6Q606.85 76.6 611.95 78.4Q617.05 80.2 620.8 83.5Q624.7 86.65 627.1 90.85Q629.65 95.05 630.25 99.85L626.8 98.65L626.8 78.25L642.4 78.25L642.4 157L626.8 157L626.8 138.25L630.4 137.2Q629.5 141.25 626.65 145.15Q623.95 148.9 619.6 151.9Q615.4 154.9 610.15 156.7Q605.05 158.5 599.35 158.5ZM603.4 144.25Q610.45 144.25 615.85 140.8Q621.25 137.35 624.25 131.35Q627.4 125.2 627.4 117.4Q627.4 109.75 624.25 103.75Q621.25 97.75 615.85 94.3Q610.45 90.85 603.4 90.85Q596.5 90.85 591.1 94.3Q585.85 97.75 582.7 103.75Q579.7 109.75 579.7 117.4Q579.7 125.2 582.7 131.35Q585.85 137.35 591.1 140.8Q596.5 144.25 603.4 144.25ZM679.6 157L664 157L664 78.25L679.6 78.25L679.6 103L678.1 97Q679.75 91.3 683.65 86.65Q687.7 82 692.8 79.3Q698.05 76.6 703.6 76.6Q706.15 76.6 708.4 77.05Q710.8 77.5 712.15 78.1L708.1 94.9Q706.3 94.15 704.05 93.7Q701.95 93.1 699.85 93.1Q695.8 93.1 692.05 94.75Q688.45 96.25 685.6 99.1Q682.9 101.8 681.25 105.55Q679.6 109.15 679.6 113.5L679.6 157ZM754.6 158.5Q743.65 158.5 734.95 153.1Q726.4 147.7 721.3 138.4Q716.35 129.1 716.35 117.55Q716.35 106 721.3 96.7Q726.4 87.4 734.95 82Q743.65 76.6 754.6 76.6Q765.1 76.6 773.65 80.95Q782.35 85.15 786.85 92.5L778.3 103Q775.9 99.55 772.15 96.7Q768.4 93.85 764.2 92.2Q760 90.55 756.1 90.55Q748.9 90.55 743.2 94.15Q737.65 97.6 734.35 103.75Q731.05 109.9 731.05 117.55Q731.05 125.2 734.5 131.35Q737.95 137.35 743.65 140.95Q749.35 144.55 756.25 144.55Q760.3 144.55 764.05 143.2Q767.95 141.85 771.55 139.15Q775.15 136.45 778.3 132.55L786.85 143.05Q782.05 149.8 773.05 154.15Q764.2 158.5 754.6 158.5ZM801.4 157L801.4 46L816.85 46L816.85 94.45L814.15 96.25Q815.65 91 820 86.65Q824.35 82.15 830.35 79.45Q836.35 76.6 842.65 76.6Q851.65 76.6 857.65 80.2Q863.65 83.65 866.65 90.85Q869.65 98.05 869.65 109L869.65 157L854.2 157L854.2 110.05Q854.2 103.3 852.4 98.95Q850.6 94.45 846.85 92.5Q843.1 90.4 837.55 90.7Q833.05 90.7 829.3 92.2Q825.55 93.55 822.7 96.1Q820 98.65 818.35 102.1Q816.85 105.4 816.85 109.3L816.85 157L809.2 157Q807.25 157 805.3 157Q803.35 157 801.4 157Z" />
	<path id="Shape 4" class="shp0" fill="#263446" d="M357.65 214.59L353.95 205.3L377.55 195.9L381.25 205.19L357.65 214.59ZM336.63 152.36L351.37 146.13L373.37 198.13L358.63 204.36L336.63 152.36ZM341.71 176.48L350.96 172.68L363.29 202.68L354.04 206.48L341.71 176.48ZM356.72 171.51L365.95 167.65L377.95 196.31L368.72 200.18L356.72 171.51Z" />
</svg>